PathFileType	4	(X/Y/Z)	C:/Users/Carlo/Dropbox/Carlos/SARAH/CongressoMarcha2025/WorkshopOpenSim/C3D/Caso01/Walking 01.c3d.trc
DataRate	CameraRate	NumFrames	NumMarkers	Units	OrigDataRate	OrigDataStartFrame	OrigNumFrames
100.000000	100.000000	4	85	mm	100.000000	328	375
Frame#	Time	PELO			PELA			PELL			PELP			LFEO			LFEA			LFEL			LFEP			LTIO			LTIA			LTIL			LTIP			LFOO			LFOA			LFOL			LFOP			LTOO			LTOA			LTOL			LTOP			RFEO			RFEA			RFEL			RFEP			RTIO			RTIA			RTIL			RTIP			RFOO			RFOA			RFOL			RFOP			RTOO			RTOA			RTOL			RTOP			LASI			RASI			RPSI			LTHI			LKNE			LTIB			LANK			LHEE			LTOE			RTHI			RKNE			RTIB			RANK			RHEE			RTOE			LPSI			LHipAngles			LKneeAngles			LAbsAnkleAngle			LAnkleAngles			RHipAngles			RKneeAngles			RAnkleAngles			RAbsAnkleAngle			LPelvisAngles			RPelvisAngles			LFootProgressAngles			RFootProgressAngles			LHipPower			LKneePower			LAnklePower			RHipPower			RKneePower			RAnklePower			LGroundReactionForce			LNormalisedGRF			LAnkleForce			RAnkleForce			RKneeForce			LKneeForce			RHipForce			LHipForce			LGroundReactionMoment			LAnkleMoment			RAnkleMoment			RKneeMoment			LKneeMoment			RHipMoment			LHipMoment			
		X1	Y1	Z1	X2	Y2	Z2	X3	Y3	Z3	X4	Y4	Z4	X5	Y5	Z5	X6	Y6	Z6	X7	Y7	Z7	X8	Y8	Z8	X9	Y9	Z9	X10	Y10	Z10	X11	Y11	Z11	X12	Y12	Z12	X13	Y13	Z13	X14	Y14	Z14	X15	Y15	Z15	X16	Y16	Z16	X17	Y17	Z17	X18	Y18	Z18	X19	Y19	Z19	X20	Y20	Z20	X21	Y21	Z21	X22	Y22	Z22	X23	Y23	Z23	X24	Y24	Z24	X25	Y25	Z25	X26	Y26	Z26	X27	Y27	Z27	X28	Y28	Z28	X29	Y29	Z29	X30	Y30	Z30	X31	Y31	Z31	X32	Y32	Z32	X33	Y33	Z33	X34	Y34	Z34	X35	Y35	Z35	X36	Y36	Z36	X37	Y37	Z37	X38	Y38	Z38	X39	Y39	Z39	X40	Y40	Z40	X41	Y41	Z41	X42	Y42	Z42	X43	Y43	Z43	X44	Y44	Z44	X45	Y45	Z45	X46	Y46	Z46	X47	Y47	Z47	X48	Y48	Z48	X49	Y49	Z49	X50	Y50	Z50	X51	Y51	Z51	X52	Y52	Z52	X53	Y53	Z53	X54	Y54	Z54	X55	Y55	Z55	X56	Y56	Z56	X57	Y57	Z57	X58	Y58	Z58	X59	Y59	Z59	X60	Y60	Z60	X61	Y61	Z61	X62	Y62	Z62	X63	Y63	Z63	X64	Y64	Z64	X65	Y65	Z65	X66	Y66	Z66	X67	Y67	Z67	X68	Y68	Z68	X69	Y69	Z69	X70	Y70	Z70	X71	Y71	Z71	X72	Y72	Z72	X73	Y73	Z73	X74	Y74	Z74	X75	Y75	Z75	X76	Y76	Z76	X77	Y77	Z77	X78	Y78	Z78	X79	Y79	Z79	X80	Y80	Z80	X81	Y81	Z81	X82	Y82	Z82	X83	Y83	Z83	X84	Y84	Z84	X85	Y85	Z85	

329	3.28	295.2037353515626	895.5175781250005	2503.415771484376	317.4180297851564	891.5267944335942	2630.351318359376	421.657409667969	884.291625976563	2480.932861328126	306.9522399902345	1023.892333984375	2505.395751953126	378.8911437988282	468.8875122070315	2380.995361328126	470.0178833007815	364.1275634765626	2794.255615234376	804.732299804688	511.5227966308596	2297.902343750001	358.4429321289064	889.9224243164067	2492.235107421876	331.5079040527345	198.8163604736329	2027.855102539063	348.4488830566407	-140.945785522461	2285.422363281251	755.4585571289065	184.900131225586	1981.613403320313	376.7291564941407	456.564636230469	2364.881835937501	336.4782104492189	65.40284729003909	2108.395019531251	362.7588195800782	194.2859344482423	2281.943603515626	552.399841308594	41.35427474975587	2093.557128906251	346.8621826171876	239.2748107910157	1977.699340820313	333.0169067382814	7.445541858673099	2151.960693359376	341.7771911621095	50.40662765502933	2209.810058593751	404.9907531738284	-0.5706849098205569	2147.014648437501	336.4782104492189	65.40287780761722	2108.395263671876	252.7341918945314	520.0307617187502	2690.584960937501	337.5337829589845	696.4105224609377	3062.506591796876	663.835388183594	502.9011230468752	2604.975830078126	231.964569091797	901.1125488281255	2514.596679687501	249.6093139648439	77.14957427978518	2710.152832031251	307.3640136718751	95.25390625000003	3129.127929687502	668.9646606445315	71.64707946777347	2652.583496093751	252.5932006835939	500.0506286621096	2691.467529296876	243.9180908203126	74.29836273193362	2865.609863281251	249.9085998535157	290.9569702148439	2850.032470703126	460.780944824219	67.44251251220706	2853.652832031251	231.5049285888673	59.08193588256839	2649.198486328126	248.0557861328126	79.37051391601565	2937.747314453126	250.0527343750001	151.5900878906251	2932.554687500001	320.3434448242189	77.08509826660159	2933.761474609376	243.9179229736329	74.29829406738284	2865.610107421876	417.6438293457034	981.3403320312505	2532.562500000001	206.6965484619142	1000.067199707032	2570.067871093751	222.5414428710939	997.1328125000005	2367.312744140626	470.2779541015627	683.841735839844	2415.333740234376	435.5446472167971	474.5596313476565	2369.940429687501	418.8758850097659	318.3477783203126	2179.785156250001	376.715545654297	197.3323974609376	2022.924316406251	330.1551513671876	221.6590576171876	1953.992919921876	323.671844482422	50.74055099487308	2091.916015625001	121.7292785644532	775.2072143554692	2599.439697265626	196.9776458740236	522.353942871094	2702.195556640626	180.4341583251954	362.160125732422	2707.372802734376	203.5452575683595	77.7539978027344	2716.476562500001	247.1053619384767	47.67494583129884	2639.150390625001	252.4622802734376	55.21009826660159	2865.453857421876	335.3237915039064	996.2734375000005	2351.801269531251	-10.0548677444458	-3.530528068542482	-12.50765323638917	0.6904612183570864	8.867686271667484	38.73899459838869	0	0	-0.7626758813858037	-0.8188937902450566	4.955382347106935	-0.765546560287476	3.118514537811281	0.4038428068161013	26.7136859893799	1.422894835472107	-4.009243965148928	22.4415454864502	1.385263442993165	-4.57469701766968	1.517531156539918	0	0	1.512703180313111	-5.228370666503908	-9.963537216186527	0.88362067937851	5.228370666503908	9.963537216186527	0.88362067937851	6.939592361450199	2.73315715789795	-36.93137741088869	-1.582290768623353	3.274751901626589	-94.02200317382815	nan	nan	nan	nan	nan	nan	nan	nan	nan	0	0.127814531326294	0	0	-0.06194415688514712	0	0	0.06071775034070018	0	nan	nan	nan	nan	nan	nan	nan	nan	nan	-0.03596664592623712	-0.01386903785169125	-0.2480959296226503	-0.07886776328086856	0.7107981443405154	-0.3675349056720735	nan	nan	nan	-0.05233741551637652	2.001857519149781	-0.3382771313190461	nan	nan	nan	nan	nan	nan	nan	nan	nan	4.357995101535218e-15	7.417390823364261	-40.38789749145509	36.13352966308595	6.522247791290287	21.0615634918213	nan	nan	nan	78.98403167724612	-7.871345520019535	175.2142791748047	nan	nan	nan	
330	3.29	295.0773315429689	897.8211059570317	2520.086669921876	317.0928955078126	894.278930664063	2647.070068359376	421.5432739257815	886.2704467773442	2497.838623046876	307.0651855468751	1026.180297851563	2521.588867187501	382.8513793945314	467.6769104003909	2409.819824218751	471.472595214844	375.2491149902345	2827.133544921876	809.5737915039067	511.2668151855471	2328.854980468751	358.3225708007814	892.0639038085942	2509.023193359376	335.7572326660157	209.7691955566407	2048.140380859376	342.0532226562501	-137.6769409179688	2295.078613281251	759.6408691406252	188.8332519531251	2007.875732421876	380.7007141113282	455.898864746094	2393.302978515626	339.0833740234376	71.63528442382815	2120.379150390626	364.3591918945314	189.4483184814454	2301.767822265626	554.9957275390627	47.0919647216797	2106.233642578126	351.8741455078126	253.1244964599611	2000.718505859376	334.819793701172	11.13886260986328	2160.266113281251	343.2449951171876	50.40993499755862	2220.729003906251	406.7905883789065	2.957767486572267	2155.551025390626	339.0834045410157	71.63528442382815	2120.379150390626	253.6758728027345	520.744812011719	2703.679443359376	339.8901977539064	693.9154052734377	3077.020996093752	664.6441650390627	504.7648925781252	2616.188232421876	231.8320159912111	903.578491210938	2531.150390625001	249.7550811767579	77.33325958251956	2710.598632812501	316.5333557128907	83.26792907714847	3128.740966796877	667.9229736328127	72.5945739746094	2643.883544921876	253.4990692138673	500.747985839844	2703.991210937501	244.2756652832032	72.04919433593753	2865.999755859376	251.0281524658204	288.9036865234376	2853.833984375001	461.0949707031252	64.60295104980472	2853.614013671876	231.4984436035157	60.29518508911136	2649.394042968751	248.5347442626954	75.96720123291018	2938.201660156251	250.7856445312501	148.2520446777344	2934.146484375001	320.8078918457032	73.48504638671878	2934.072998046876	244.2756195068361	72.04924011230472	2865.999755859376	417.5378417968752	983.5342407226567	2549.104248046876	206.7648773193361	1002.785034179688	2586.183837890626	223.0441741943361	999.2587890625005	2383.440429687501	471.872985839844	683.9116821289065	2438.807373046876	439.5499267578127	473.4686584472659	2399.062011718751	422.718444824219	322.6804809570314	2204.791015625001	380.9986572265626	207.5346679687501	2043.842651367188	334.8685302734376	237.6852569580079	1977.139526367188	326.2440795898439	56.25364685058597	2103.570556640626	122.2275848388672	776.9328613281255	2615.203857421876	197.9655151367189	522.9109497070315	2715.539306640626	181.1560058593751	362.7249755859376	2717.503417968751	203.8386688232423	77.85357666015628	2717.924072265626	247.1837463378907	48.28459167480472	2639.252929687501	252.7592620849611	52.86349868774417	2865.984619140626	335.901092529297	997.654418945313	2368.169189453126	-10.45355796813965	-3.097675800323488	-10.9933614730835	0.6038226485252383	10.04359340667725	42.31700515747072	0	0	-2.433905839920045	-0.5840384960174563	3.978028059005739	-2.439770460128785	3.538672208786013	0.631941616535187	26.0305633544922	1.496175169944764	-2.973815679550172	23.56991386413575	1.631961584091187	-5.71489191055298	2.249138593673707	0	0	2.237945795059205	-5.335184574127199	-9.875296592712406	0.6704744100570681	5.335184574127199	9.875296592712406	0.6704744100570681	6.676990985870365	3.367316007614138	-33.39794158935548	-1.783811688423158	3.370930433273317	-93.10608673095706	nan	nan	nan	nan	nan	nan	nan	nan	nan	0	0.19527505338192	0	0	-0.05490033328533175	0	0	0.05745461210608485	0	nan	nan	nan	nan	nan	nan	nan	nan	nan	-0.02931608445942403	-0.005384345538914205	-0.2253476083278657	-0.05001635849475863	0.6533250808715823	-0.3659439682960511	nan	nan	nan	0.001986993709579111	1.913929104804994	-0.3669638335704805	nan	nan	nan	nan	nan	nan	nan	nan	nan	-5.210646841845129e-15	6.592612266540531	-36.49183654785158	28.08314323425294	5.689685344696047	25.27400398254396	nan	nan	nan	56.53537368774417	-5.956324577331545	177.3977355957032	nan	nan	nan	
331	3.3	295.0338745117189	900.3088378906255	2536.406250000001	316.8448486328126	897.2253417968755	2663.437011718751	421.524353027344	888.5597534179692	2514.402832031251	307.136444091797	1028.661865234375	2537.443847656251	386.7308349609377	467.0408325195315	2439.250976562501	472.7042236328127	387.8363952636721	2860.270751953126	814.1911621093755	511.4072265625002	2360.308837890626	358.2912902832032	894.4526367187505	2525.465332031251	339.9713134765626	220.7767181396486	2070.078125000001	334.832000732422	-133.142318725586	2306.817871093751	763.4254150390627	191.7173767089844	2035.827880859376	384.593200683594	455.7825012207034	2422.373535156251	342.0755310058595	79.06717681884768	2135.074462890626	365.8132324218751	187.2069549560547	2322.592285156251	558.043884277344	54.46202087402347	2121.924804687501	356.7332458496095	266.4732055664064	2025.143676757813	337.1896057128907	16.59851455688477	2171.718017578126	345.102264404297	52.64521789550784	2234.223876953126	409.1790466308596	8.396772384643558	2167.334716796876	342.0754699707032	79.06721496582034	2135.074218750001	254.3538513183595	521.216735839844	2715.518798828126	341.7967529296876	690.2481079101565	3090.696777343752	665.231384277344	506.3961181640627	2626.432617187501	231.7764282226564	906.1650390625005	2547.347656250001	249.8560333251954	77.67488861083987	2710.968261718751	323.0997924804689	72.65200805664065	3128.145507812502	667.0415649414065	74.1962585449219	2637.681152343751	254.1510467529298	501.2188720703127	2715.313720703126	244.4572753906251	70.52875518798831	2866.297363281251	251.5364074707032	287.5034484863282	2856.738769531251	461.2579345703127	62.90011215209964	2853.694824218751	231.5381011962892	61.40278244018558	2649.573242187501	248.7636260986329	73.57072448730472	2938.538818359376	251.1231994628907	145.8956146240235	2935.352783203126	321.030487060547	71.02799224853518	2934.338134765626	244.4573669433595	70.5288009643555	2866.297607421876	417.446472167969	986.0270385742192	2565.309082031251	206.7924346923829	1005.593627929688	2601.953125000001	223.6060791015626	1001.519409179688	2399.234130859376	473.5238952636721	684.3930664062502	2462.416748046876	443.4715881347659	472.9299621582034	2428.771972656251	426.5003356933596	327.1921386718751	2231.044433593751	385.217468261719	217.6717224121095	2066.418457031251	339.5299377441407	252.9171905517579	2001.846679687501	329.2346801757814	62.71343231201175	2117.936035156251	122.6790771484376	778.6243286132817	2630.236572265626	198.6827697753907	523.2248535156252	2727.589111328126	181.6503143310547	363.1224365234376	2726.379638671876	204.0588836669923	78.056755065918	2719.013183593751	247.2375946044923	48.74306488037112	2639.343505859376	252.9158020019532	51.29331970214847	2866.272216796876	336.5156860351564	999.2498168945317	2384.191650390626	-10.75868129730225	-2.63204574584961	-9.373323440551761	0.5202643275260928	11.34098720550537	45.87061309814455	0	0	-3.689703226089479	-0.3011590242385865	2.797698736190797	-3.69410300254822	3.888648748397829	0.8677657842636113	25.20265769958498	1.575560212135316	-2.250884771347047	24.40415573120119	1.816752195358277	-6.565978527069095	3.048161745071413	0	0	3.028159141540529	-5.38638496398926	-9.783439636230472	0.4631609320640566	5.38638496398926	9.783439636230472	0.4631609320640566	6.272364616394047	3.859519958496096	-30.39553642272951	-1.870164275169373	3.408379554748537	-92.41121673583987	nan	nan	nan	nan	nan	nan	nan	nan	nan	0	0.2352699786424638	0	0	-0.04115999490022661	0	0	0.05052316188812259	0	nan	nan	nan	nan	nan	nan	nan	nan	nan	-0.02268576435744763	0.001504518208093942	-0.2035051733255387	-0.0239243544638157	0.6109454035758974	-0.3491059243679048	nan	nan	nan	0.05624074861407283	1.84319829940796	-0.3477945923805238	nan	nan	nan	nan	nan	nan	nan	nan	nan	-3.623767884613877e-15	5.496520042419435	-32.28222656250001	20.4084758758545	4.661241054534914	28.04611968994142	nan	nan	nan	34.21605682373048	-3.955991983413698	164.3338012695313	nan	nan	nan	
332	3.31	295.1007385253907	902.9479370117192	2552.379638671876	316.7138061523439	900.326538085938	2679.454589843751	421.6263732910159	891.130493164063	2530.616210937501	307.1909790039064	1031.304931640625	2552.971191406251	390.520202636719	467.0679016113284	2469.109375000001	473.9395446777346	401.828063964844	2893.324462890626	818.5170898437505	512.0777587890627	2391.868408203126	358.3756713867189	897.0578613281255	2541.558349609376	344.0781860351564	231.602264404297	2093.560546875001	327.3865966796876	-127.5089721679688	2320.783935546876	766.7217407226565	193.860076904297	2064.958496093751	388.3945312500002	456.2901611328127	2451.919921875001	345.4347534179689	87.31427764892581	2152.633789062501	367.331024169922	187.5509948730469	2344.711425781251	561.5104980468752	63.05311584472659	2140.662597656251	361.323944091797	279.1076049804689	2050.734130859376	340.1383361816407	23.38318252563477	2186.600097656251	347.4369201660157	56.79523849487308	2250.625976562501	412.1635742187502	15.2961769104004	2182.609863281251	345.434783935547	87.31422424316409	2152.633789062501	254.8059234619142	521.4606933593752	2726.137207031251	343.2350463867189	685.4441528320315	3103.532470703127	665.6463012695315	507.8326721191409	2635.792968750001	231.8258056640626	908.8381347656255	2563.200927734376	249.9457855224611	78.09625244140628	2711.315185546876	327.048797607422	63.33377075195315	3127.616699218752	666.4831542968752	76.11161804199222	2634.098144531251	254.5868225097657	501.473083496094	2725.468994140626	244.5098266601564	69.562126159668	2866.572753906251	251.5389404296876	286.6151733398439	2858.953857421876	461.3153381347659	62.09822845458987	2853.957519531251	231.6472625732423	62.36874008178714	2649.772705078126	248.7973632812501	71.95994567871097	2938.839599609376	251.1404113769532	144.3109436035157	2936.300048828126	321.065887451172	69.47196960449222	2934.634521484376	244.5098419189454	69.56214141845706	2866.572753906251	417.400573730469	988.7869262695317	2581.172851562501	206.8087158203126	1008.456115722657	2617.396240234376	224.2108459472657	1003.893798828125	2414.708496093751	475.2340393066409	685.351745605469	2486.020507812501	447.2948913574221	473.0385437011721	2458.863037109376	430.1855163574221	331.8715820312501	2258.354492187501	389.2951965332034	227.5643463134767	2090.500244140626	343.9910278320314	266.9905090332032	2027.812866210938	332.630584716797	69.88780212402347	2135.167968750001	123.1147842407227	780.2467651367192	2644.547851562501	199.1652069091798	523.306335449219	2738.372314453126	181.9509887695313	363.3393554687501	2734.023193359376	204.2252502441407	78.31409454345706	2719.790527343751	247.2659606933595	49.07658767700198	2639.426513671876	252.9732513427736	50.32747650146487	2866.390625000001	337.153045654297	1001.038024902344	2399.862792968751	-10.96803188323975	-2.167769670486451	-7.668262958526615	0.4314836263656618	12.69343852996827	49.34173965454104	0	0	-4.509217739105226	0.01406306400895119	1.479579448699952	-4.5107479095459	4.163233757019045	1.098229050636292	24.23780822753908	1.652507543563844	-1.843079328536988	24.94940185546876	1.935603857040406	-7.111826419830326	3.875272512435915	0	0	3.845398187637331	-5.380876064300539	-9.693663597106937	0.2639843821525575	5.380876064300539	9.693663597106937	0.2639843821525575	5.786318778991701	4.184356212615969	-27.98164939880373	-1.856945991516114	3.393460750579836	-91.9003829956055	nan	nan	nan	nan	nan	nan	nan	nan	nan	0	0.2394103705883027	0	0	-0.02478643879294397	0	0	0.04209493473172189	0	nan	nan	nan	nan	nan	nan	nan	nan	nan	-0.01670740544795991	0.007096810732036832	-0.1840716600418091	-0.003133919322863223	0.5841225385665896	-0.3217476904392244	nan	nan	nan	0.1044718846678734	1.791104197502137	-0.2937474548816682	nan	nan	nan	nan	nan	nan	nan	nan	nan	1.515824539659642e-15	4.275618076324465	-28.1510696411133	13.84105968475343	3.551370620727541	29.27504348754884	nan	nan	nan	14.48431110382081	-2.260520458221436	139.4627380371094	nan	nan	nan	
